<svg xmlns="http://www.w3.org/2000/svg" viewBox="0 0 456.61 96.95"><defs><style>.cls-1{fill:#303948;}.cls-2{fill:#be1622;stroke:#009fe3;stroke-miterlimit:10;stroke-width:3px;}</style></defs><g id="Layer_2" data-name="Layer 2"><g id="Слой_1" data-name="Слой 1"><path class="cls-1" d="M87,45.85V59.74H18.79q-18,0-18-14.64V14.56Q.79,0,18.79,0H86.74V13.89H18.79q-3.36,0-3.36,2.91V42.86c0,2,1.12,3,3.36,3Z"/><path class="cls-1" d="M178.37,45.85V59.74H112.43q-18,0-18-14.64V14.56Q94.44,0,112.43,0h65.72V13.89H112.43q-3.36,0-3.36,2.91v6.05H177.7V36.74H109.07v6.12c0,2,1.12,3,3.36,3Z"/><path class="cls-1" d="M208.76,18.37a14.09,14.09,0,0,0-3.84-3.17,9.31,9.31,0,0,0-4.67-1.31h-.75V59.74H185.31V0h14.94a23.28,23.28,0,0,1,10,1.94,25.28,25.28,0,0,1,7.81,6.12L247,41.37a16,16,0,0,0,3.8,3.14,9,9,0,0,0,4.63,1.34h.75V0h14.26V59.74h-15a24.47,24.47,0,0,1-10.49-2A23.3,23.3,0,0,1,237,51.3Z"/><path class="cls-1" d="M361.77,0V13.89H295.83c-2.29,0-3.43.72-3.43,2.17v4.63c0,1.44,1.14,2.16,3.43,2.16h49.89q17.91,0,17.92,14.26v8.14q0,14.49-18,14.49H279.7V45.85h65.94c2.24,0,3.36-.7,3.36-2.09V38.91c0-1.45-1.12-2.17-3.36-2.17H295.76q-18,0-18-12.77V14.56Q277.76,0,295.83,0Z"/><path class="cls-1" d="M454.74,0V13.89H388.8c-2.29,0-3.43.72-3.43,2.17v4.63c0,1.44,1.14,2.16,3.43,2.16h49.89q17.91,0,17.92,14.26v8.14q0,14.49-18,14.49H372.67V45.85h65.94c2.24,0,3.36-.7,3.36-2.09V38.91c0-1.45-1.12-2.17-3.36-2.17H388.73q-18,0-18-12.77V14.56Q370.73,0,388.8,0Z"/><path class="cls-1" d="M27.51,88.15v4.31H6.36c-3.72,0-5.58-1.52-5.58-4.54V78.44q0-4.51,5.58-4.51H27.44v4.3H6.36c-.69,0-1,.31-1,.91v8.08c0,.62.35.93,1,.93Z"/><path class="cls-1" d="M46.83,88.64v3.82H35q-5.19,0-5.19-4.2V82.5q0-3.85,5.19-3.85h8.47c2.38,0,3.57,1.08,3.57,3.22v2a2.77,2.77,0,0,1-.88,2.28,4.13,4.13,0,0,1-2.69.73H34.37v.88c0,.6.35.91,1,.91Zm-11.42-6.4c-.69,0-1,.33-1,1v.94h7.27c.59,0,.88-.34.88-1s-.29-.92-.88-.92Z"/><path class="cls-1" d="M67.7,92.46H63.16V83.15c0-.61-.34-.91-1-.91h-8.2V92.46H49.38V78.65H62.12c3.72,0,5.58,1.52,5.58,4.54Z"/><path class="cls-1" d="M69.05,78.65h2.31V74.39h4.33v4.26h2.53v3.59H75.69V92.46H71.36V82.24H69.05Z"/><path class="cls-1" d="M96.19,88.64v3.82H84.38q-5.19,0-5.19-4.2V82.5q0-3.85,5.19-3.85h8.48c2.38,0,3.57,1.08,3.57,3.22v2a2.8,2.8,0,0,1-.88,2.28,4.15,4.15,0,0,1-2.69.73H83.73v.88c0,.6.35.91,1,.91Zm-11.42-6.4c-.69,0-1,.33-1,1v.94H91c.58,0,.88-.34.88-1a.8.8,0,0,0-.88-.92Z"/><path class="cls-1" d="M103.28,92.46H98.74V83.19c0-3,1.86-4.54,5.58-4.54h6v3.59h-6c-.69,0-1,.3-1,.91Z"/><path class="cls-1" d="M123.25,92.46V78q0-4.52,5-4.52H132v3.36H129c-.83,0-1.25.23-1.25.67v1.16H132v3.59h-4.17V92.46Z"/><path class="cls-1" d="M146.34,78.65c3.72,0,5.59,1.52,5.59,4.54V88c0,3-1.87,4.5-5.59,4.5h-7.17c-3.73,0-5.59-1.52-5.59-4.54V83.19c0-3,1.86-4.54,5.59-4.54Zm-7.18,3.59c-.69,0-1,.3-1,.91v4.56c0,.62.35.93,1,.93h7.16c.71,0,1.07-.3,1.07-.88V83.15c0-.61-.36-.91-1.07-.91Z"/><path class="cls-1" d="M158.76,92.46h-4.54V83.19c0-3,1.86-4.54,5.58-4.54h6v3.59h-6c-.69,0-1,.3-1,.91Z"/><path class="cls-1" d="M204.74,73.93v4.3H184.29c-.71,0-1.07.23-1.07.68v1.43c0,.45.36.68,1.07.68h15.47q5.56,0,5.56,4.42V88q0,4.5-5.58,4.5H179.28V88.15h20.46c.69,0,1-.22,1-.65V86c0-.44-.35-.67-1-.67H184.27q-5.6,0-5.59-4V78.44q0-4.51,5.61-4.51Z"/><path class="cls-1" d="M224.57,88.64v3.82H212.76q-5.19,0-5.19-4.2V82.5q0-3.85,5.19-3.85h8.48c2.37,0,3.56,1.08,3.56,3.22v2a2.77,2.77,0,0,1-.88,2.28,4.1,4.1,0,0,1-2.68.73h-9.13v.88c0,.6.35.91,1,.91Zm-11.42-6.4c-.69,0-1,.33-1,1v.94h7.27c.59,0,.88-.34.88-1s-.29-.92-.88-.92Z"/><path class="cls-1" d="M243.2,88.64v3.82H232.7c-3.72,0-5.58-1.52-5.58-4.54V83.19c0-3,1.86-4.54,5.58-4.54h10.4v3.59H232.7c-.69,0-1,.3-1,.91v4.56c0,.62.35.93,1,.93Z"/><path class="cls-1" d="M263.21,78.65V88q0,4.5-5.58,4.5h-6.81c-3.72,0-5.59-1.52-5.59-4.54V78.65h4.55V88c0,.43.35.65,1.06.65h6.79c.69,0,1-.22,1-.65V78.65Z"/><path class="cls-1" d="M270.07,92.46h-4.54V83.19c0-3,1.86-4.54,5.58-4.54h6v3.59h-6c-.7,0-1,.3-1,.91Z"/><path class="cls-1" d="M286.77,78.65h2.32V74.39h4.33v4.26H296v3.59h-2.53V92.46h-4.33V82.24h-2.32Z"/><path class="cls-1" d="M311.07,86.64v-8h4.54V92.41Q315.61,97,310,97H298V93.13h11.6c1,0,1.46-.43,1.46-1.3V90.47H301.2q-3.92,0-3.91-3.62v-8.2h4.54v7.07c0,.62.35.92,1.06.92Z"/><path class="cls-1" d="M356.29,73.93v4.3H335.84c-.71,0-1.07.23-1.07.68v1.43c0,.45.36.68,1.07.68h15.47q5.56,0,5.56,4.42V88q0,4.5-5.58,4.5H330.83V88.15h20.46c.69,0,1-.22,1-.65V86c0-.44-.35-.67-1-.67H335.82q-5.6,0-5.59-4V78.44q0-4.51,5.61-4.51Z"/><path class="cls-1" d="M358.14,78.65h2.32V74.39h4.33v4.26h2.53v3.59h-2.53V92.46h-4.33V82.24h-2.32Z"/><path class="cls-1" d="M386.64,78.65V88q0,4.5-5.59,4.5h-6.81c-3.72,0-5.58-1.52-5.58-4.54V78.65h4.54V88c0,.43.36.65,1.06.65h6.8c.69,0,1-.22,1-.65V78.65Z"/><path class="cls-1" d="M407.3,73.46V87.92c0,3-1.86,4.54-5.59,4.54h-7.17c-3.72,0-5.59-1.52-5.59-4.54V83.19c0-3,1.86-4.54,5.59-4.54h8.22V73.46Zm-12.76,8.78c-.7,0-1.05.3-1.05.91v4.56q0,.93,1.05.93h7.15c.71,0,1.07-.31,1.07-.93V82.24Z"/><path class="cls-1" d="M409.59,73.46h4.57v2.92h-4.57Zm0,5.19h4.54V92.46h-4.54Z"/><path class="cls-1" d="M279.83,73.46h4.56v2.92h-4.56Zm0,5.19h4.54V92.46h-4.54Z"/><path class="cls-1" d="M433.45,88.64v3.82H421.64q-5.19,0-5.19-4.2V82.5q0-3.85,5.19-3.85h8.48c2.38,0,3.56,1.08,3.56,3.22v2a2.77,2.77,0,0,1-.88,2.28,4.1,4.1,0,0,1-2.68.73H421v.88c0,.6.35.91,1,.91ZM422,82.24c-.69,0-1,.33-1,1v.94h7.27c.59,0,.88-.34.88-1s-.29-.92-.88-.92Z"/><path class="cls-1" d="M449.67,83.89q3.57,0,3.57,2.85v2.64q0,3.08-3.57,3.08H436V88.64h11.84c.58,0,.88-.34.88-1s-.3-.83-.88-.83h-8.44c-2.38,0-3.56-1-3.56-2.9V81.66c0-2,1.18-3,3.56-3h13.44v3.59H441.24c-.59,0-.88.28-.88.84s.29.81.88.81Z"/><path class="cls-2" d="M0,67.37H453.24"/></g></g></svg>